<?xml version="1.0" encoding="UTF-8"?>
<!DOCTYPE svg PUBLIC "-//W3C//DTD SVG 1.1//EN" "http://www.w3.org/Graphics/SVG/1.1/DTD/svg11.dtd">
<!-- Creator: CorelDRAW 2018 (64-Bit Evaluation Version) -->
<?xml-stylesheet href="tree1.css" type="text/css"?>
<svg xmlns="http://www.w3.org/2000/svg" xml:space="preserve" width="170.254mm" height="226.18mm" version="1.1" style="shape-rendering:geometricPrecision; text-rendering:geometricPrecision; image-rendering:optimizeQuality; fill-rule:evenodd; clip-rule:evenodd"
viewBox="0 0 1345.29 1787.2"
 xmlns:xlink="http://www.w3.org/1999/xlink">
 <g id="Layer_x0020_1">
  <metadata id="CorelCorpID_0Corel-Layer"/>
  <path class="fil0" d="M817.47 352.32c-381.34,98.66 -227.69,665.91 151.37,565.71 363.21,-96.01 232.46,-665.01 -151.37,-565.71z"/>
  <path class="fil0" d="M384.37 9c-342.66,86.57 -214.92,607.02 135.44,517.01 120.45,-30.94 232.34,-168.24 188.83,-328 -33.65,-123.58 -161.26,-230.19 -324.27,-189.01z"/>
  <path class="fil0" d="M166.65 521.34c-296.21,88.37 -162.93,532.82 129.36,443.47 288.3,-88.13 163.41,-530.81 -129.36,-443.47z"/>
  <path class="fil1" d="M546.63 1079.3l-2.88 16.15 -13.64 -2.98c10.8,31.84 36.53,46.31 69.41,56.23 52.43,15.83 43.07,9.83 66.55,55.22 62.72,121.29 110.34,230.87 110.46,376.04 0.08,103.32 -21.1,121.31 -45.33,203.69l123.14 3.54c55.52,-73.25 54.48,-187.28 45.95,-280.82 36.17,-44.73 52.9,-10.69 96.14,-95.88 22.69,-44.7 44.76,-94.7 53.93,-143.98 -14.91,-5.55 -15.36,10.45 -10.34,-13.54 -25.4,-24.92 23.48,-0.08 -4.11,0.22l-7.68 -0.56c-14.51,14.27 -6.94,4.63 -19.23,25.26l-42.45 79.34c-18.41,30.84 -45.91,61.67 -79.45,82.31l-101.17 -199.22c-35.38,-63.98 -82.13,-124.18 -120.11,-182.72 -108.22,-166.8 -123.58,-259.28 -116.83,-482.09 -34.63,107.88 -55.96,156.78 -25.32,287.85 14.41,61.62 69.44,204.62 96.58,247.45 -31.92,-3.16 -50.76,-14 -73.62,-31.53z"/>
  <path class="fil0" d="M229.08 1212.11c20.47,165.09 291.54,133.63 257.75,-47.96 -28.86,-155.07 -280.25,-133.56 -257.75,47.96z"/>
  <path class="fil0" d="M996.64 1130.37c49.21,-153.01 -182.13,-218.89 -227.57,-76.93 -52.28,163.33 180.93,221.93 227.57,76.93z"/>
  <path class="fil0" d="M1113.04 1252.98c22.81,120.3 220.13,98.85 200.47,-40.3 -7.31,-51.79 -60.77,-94.15 -122.64,-82.25 -50.47,9.71 -89.92,58.75 -77.83,122.55z"/>
  <path class="fil0" d="M1339.71 1015.93c35.3,-87.69 -107.06,-143.39 -138.72,-52.99 -35.42,101.17 101.97,144.26 138.72,52.99z"/>
  <path class="fil0" d="M1035.05 1024.1c20.58,69.34 150.13,51.77 122.31,-47.22 -20.2,-71.89 -151.67,-51.69 -122.31,47.22z"/>
  <path class="fil0" d="M512.22 1244.81c7.35,77.5 132.32,70.53 123.97,-15.76 -7.62,-78.76 -132.34,-72.41 -123.97,15.76z"/>
  <path class="fil2" d="M1028.24 1252.64l7.68 0.56c27.59,-0.29 -21.29,-25.13 4.11,-0.22 -5.02,23.99 -4.57,7.99 10.34,13.54 11.98,-42.74 22.94,-72.88 45.1,-107.61 24.22,-37.96 41.67,-48.96 67.09,-77.46l1.07 -9.68c-40.78,19.64 -64.53,40.35 -86.84,76.72 -17.52,28.55 -45.8,70.74 -48.54,104.14z"/>
  <path class="fil2" d="M530.12 1092.47l13.64 2.98 2.88 -16.15c-35.4,-23.97 -69.59,-53.84 -115.15,-73.01 -12.55,0.58 -9.61,-2.81 -9.61,9.37 24.83,13.16 40.53,23.59 58.85,38.85 10.79,8.99 14.74,14.71 25.46,23.81 16.97,14.4 7.4,7.92 23.93,14.15z"/>
  <path class="fil3" d="M421.87 1015.66c0,-12.17 -2.93,-8.79 9.61,-9.37 -24.43,-19 -42.67,-17.69 -79.23,-11.59l69.61 20.96z"/>
  <path class="fil3" d="M1162.55 1081.46c22.95,-12.47 11.18,-5.32 22.17,-19.91l-21.1 10.23 -1.07 9.68z"/>
 </g>
</svg>
