<?xml version="1.0" encoding="UTF-8"?>
<!DOCTYPE svg PUBLIC "-//W3C//DTD SVG 1.1//EN" "http://www.w3.org/Graphics/SVG/1.1/DTD/svg11.dtd">
<!-- Creator: CorelDRAW 2018 (64-Bit Evaluation Version) -->
<svg xmlns="http://www.w3.org/2000/svg" xml:space="preserve" width="93.4506mm" height="134.602mm" version="1.1" shape-rendering="geometricPrecision" text-rendering="geometricPrecision" image-rendering="optimizeQuality" fill-rule="evenodd" clip-rule="evenodd"
viewBox="0 0 2818.28 4059.3"
 xmlns:xlink="http://www.w3.org/1999/xlink">
 <defs>
   <clipPath id="id0">
    <path d="M171.23 3925.3l115.2 -0.42 9.9 -70.88c28.44,-20.54 -18.73,1.41 37.37,-20.84 4.97,-1.97 30.27,-6.88 36,-7.94l-67.71 8.94c15.98,-159.11 68.92,-666.52 120.72,-771.94 0.08,135.09 -7.5,235.96 2.03,367.14 9.17,126.15 10.14,259.25 10.12,386.13l1.04 145.97c82.38,-39.2 80.02,-39.19 166.44,-24.97l5.33 -137.86 136.05 -1806.88 -9.14 6.31 -37.1 17.15c-150,101.6 -322.19,14.61 -474.18,45.54 -32.84,87.57 -14.3,307.06 -28.98,476.06 -6.56,75.43 22.75,128.33 20.59,217.69l-24.7 706.49c-0.8,84.38 -7.67,167.33 -6.17,251.83 1.12,62.92 19.23,227.33 -12.79,212.49z"/>
   </clipPath>
   <clipPath id="id1">
    <path d="M132.8 1991.98c128.38,75.07 410.74,43.23 561.63,32.28l37.1 -17.15 1.71 -41.18 -29.53 15.4c-11.86,5.18 -30.91,13.69 -39.57,16.2 -23.61,6.87 -56.17,8.44 -81.06,8.27 -80.82,-0.57 -203.66,-32.23 -273.65,-69.7 -116.81,-62.54 -81.03,-217.49 -127.98,-391.18 -26.58,-98.31 -46.44,-208.07 -52.89,-312.62l164.39 298.21c58.79,77.09 131.79,168.31 220.85,233.29 62.76,45.79 132.79,71.15 213.68,120.07l-4.49 -61.27c-203.3,-79.59 -323.24,-164.45 -424.67,-362.79 56.12,-49.78 112.31,-102.67 137.41,-180.97 -51.98,-69.62 -79.49,-131.81 -132.51,-200.41 -40.24,-52.07 -128.01,-143.33 -147.02,-188.56 -17.42,4.88 -19.36,2.64 -37.57,12.24 -42.6,22.46 -17.14,6.2 -39.37,29.31 -9.63,1.08 -54.15,-37.2 -52.34,102.86 0.61,47.25 7.07,106.11 12.33,153.61 36.44,329.66 93.48,196.56 102.76,523.25 2.07,72.58 -33.74,243.9 -9.21,280.85z"/>
   </clipPath>
 </defs>
 <g id="Layer_x0020_1">
  <metadata id="CorelCorpID_0Corel-Layer"/>
  <path fill="#A47450" d="M171.23 3925.3l115.2 -0.42 9.9 -70.88c28.44,-20.54 -18.73,1.41 37.37,-20.84 4.97,-1.97 30.27,-6.88 36,-7.94l-67.71 8.94c15.98,-159.11 68.92,-666.52 120.72,-771.94 0.08,135.09 -7.5,235.96 2.03,367.14 9.17,126.15 10.14,259.25 10.12,386.13l1.04 145.97c82.38,-39.2 80.02,-39.19 166.44,-24.97l5.33 -137.86 136.05 -1806.88 -9.14 6.31 -37.1 17.15c-150,101.6 -322.19,14.61 -474.18,45.54 -32.84,87.57 -14.3,307.06 -28.98,476.06 -6.56,75.43 22.75,128.33 20.59,217.69l-24.7 706.49c-0.8,84.38 -7.67,167.33 -6.17,251.83 1.12,62.92 19.23,227.33 -12.79,212.49z"/>
  <g clip-path="url(#id0)">
   <g id="_2364926340144">
    <path id="1" fill="#8E6143" d="M468.3 3946.15c0,0 -23.57,-1232.8 33.88,-1417.92 0,0 -137.55,91.59 -108.52,312.79 29.04,221.19 14.36,1086.78 14.36,1086.78l20.75 63.84 39.53 -45.48z"/>
   </g>
  </g>
  <path fill="none" d="M171.23 3925.3l115.2 -0.42 9.9 -70.88c28.44,-20.54 -18.73,1.41 37.37,-20.84 4.97,-1.97 30.27,-6.88 36,-7.94l-67.71 8.94c15.98,-159.11 68.92,-666.52 120.72,-771.94 0.08,135.09 -7.5,235.96 2.03,367.14 9.17,126.15 10.14,259.25 10.12,386.13l1.04 145.97c82.38,-39.2 80.02,-39.19 166.44,-24.97l5.33 -137.86 136.05 -1806.88 -9.14 6.31 -37.1 17.15c-150,101.6 -322.19,14.61 -474.18,45.54 -32.84,87.57 -14.3,307.06 -28.98,476.06 -6.56,75.43 22.75,128.33 20.59,217.69l-24.7 706.49c-0.8,84.38 -7.67,167.33 -6.17,251.83 1.12,62.92 19.23,227.33 -12.79,212.49z"/>
  <path fill="#67AD54" d="M2001.37 2582.38l9.8 38.28c-32.03,79.46 -91.8,-55.92 -169.61,29.2l-14.83 17.44c-46.64,71.06 -8.6,185.23 27.23,201.58 88.65,4.3 41.71,-7.83 105.26,-27.21l205.96 18.23c90.52,27.11 -79.9,38.8 90.25,42.28 -18.26,42.58 -21.12,-2.95 -5.82,66.15 29.79,14.62 53.49,17.21 102.6,17.34 -38.27,66.64 -30.58,69.91 18,115.61l-3.43 61.82 14.25 47.47c55.07,-17.99 56.72,-29.1 90.07,-43.79 68.3,-30.09 2.75,-7.93 89.74,18.89 245.73,-135.18 51.48,-17.78 172.54,-177.8 35.99,-47.57 48.36,-26.12 84.88,-49.08 -64.25,-94.97 -39.71,-22.29 -4.28,-114.7l-85.54 8.28c-11.06,-34.33 1.06,-25.6 -28.72,-42.35 -1.26,-0.71 -84.02,-27.64 -91.75,-30.4 -2.74,3.28 -5.58,4.92 -6.9,10.8 -11.76,52.07 -108.22,55.53 -145.2,66.42 -22.75,-153.27 77.78,9.52 -6.57,-134.97l62.3 -8.88c-42.44,-132.11 -37.4,-14.54 -3.45,-141.55l-129.37 -28.83c-108.11,-45.88 -5.44,-43.78 -107.86,-73.6l-17.85 111.63c-62.61,-5.03 -61.75,22.88 -62.27,23.76l-88.59 1.03c-8.15,-40.05 7.36,-14.04 -12.62,-42.68l-88.22 19.63z"/>
  <path fill="#549342" d="M1941.18 3188.65l23.22 -53.84 90.31 6.69c1.73,-3.02 9.18,-17.81 11.73,-21.5 27.92,-40.32 48.62,-36.1 101.7,-82.65l79.54 23.61 -23.74 41.89 38.44 14.5c33.76,-12.72 22.13,-6.22 29.79,-1.47l-21.26 73.49 95.88 -26.26 3.43 -61.82c-48.58,-45.7 -56.27,-48.97 -18,-115.61 -49.12,-0.13 -72.81,-2.72 -102.6,-17.34 -15.3,-69.1 -12.44,-23.57 5.82,-66.15 -170.15,-3.48 0.27,-15.17 -90.25,-42.28l-205.96 -18.23c-63.55,19.38 -16.61,31.51 -105.26,27.21 -35.82,-16.35 -73.87,-130.52 -27.23,-201.58l14.83 -17.44c77.81,-85.12 137.57,50.26 169.61,-29.2l-9.8 -38.28c-6.92,-88.46 -30.15,-38.88 -104.07,-75.69 -102.34,-50.97 26.41,28.81 -35.43,-28.36 -1.76,-1.63 -4.8,-6.15 -7.91,-8.44 -101.23,52.96 35.11,27.5 -116.36,61.45 -2.62,0.59 -8.41,1.2 -11.98,3.32l19.33 94.78 -79.9 30.13c3.32,65.79 12.06,48.88 35.16,102.67 -54.91,5.21 -20.06,-2.99 -58.19,16.25 -0.12,0.06 -53.11,35.5 -55.3,37.25 -83.16,66.47 17.56,13.13 -109.89,80.22 12.16,49.8 44.06,35.66 9.31,87.67 -2.2,3.29 -6.05,7.29 -8.38,10.36l85.1 16.12c-43.29,23.67 -37.88,23.85 -53.45,63.29l140.42 3.89 15.62 48.75 78.96 -18.5c11.19,21.62 -0.41,47.91 15.3,76.79 47.14,-17.3 68.99,-42.25 98.71,-61 41.75,55.66 6.63,50.63 82.76,65.31z"/>
  <path fill="#629D55" d="M153.19 889.86c19.01,45.23 106.78,136.49 147.02,188.56 53.02,68.6 80.53,130.8 132.51,200.41l-8.65 26.97c-1.86,3.44 -6.18,11.06 -8.11,14.51 -2.08,3.75 -6.71,9.98 -10.14,14.91 88.62,28.51 56.36,114.45 121.63,205.53 32.1,44.8 155.98,151.06 197.42,150.96 9.09,-75.03 35.77,-97.06 33,-187.17 -17.36,-565.22 41.7,-604.63 -196.15,-630.52l32.56 48.67c-79.16,56.23 -240.95,16.93 -277.7,-64.91l-163.4 32.08z"/>
  <path fill="#8EA9B2" d="M1216.84 2251.36c-54.94,41.93 1.82,37.31 166.28,103.15 77.86,31.17 159.93,66.82 235.21,93.01l46.43 -134.78c-27.12,-66.44 -3.43,80.75 -114.31,50.1 -8.09,-80.16 87.45,-170.72 161.44,-155.66 66.21,-98.72 -2.64,-137.94 225.04,-156.75 44.44,-3.67 93.49,-3.43 129.45,-25.11l-20.77 -15.22c-13.03,-6.77 -0.9,-4.73 -34.91,-15.84 -9.63,-3.15 -51.51,-10.52 -64.84,-13.1 -44.16,-8.57 -84.55,-18.54 -125.61,-27.84l26.33 -75.76c-61.52,-21.55 -134.65,-47.75 -193.01,-72.51 -66.41,-28.17 -112.02,-52.31 -180.71,-73.59 -16.26,106.97 -53.66,182.1 -55.98,309.85 -1.77,97.49 1.69,207.28 37.15,287.8 -71.15,-7.45 -189.16,-50.38 -237.19,-77.74z"/>
  <path fill="#538543" d="M132.8 1991.98c128.38,75.07 410.74,43.23 561.63,32.28l37.1 -17.15 1.71 -41.18 -29.53 15.4c-11.86,5.18 -30.91,13.69 -39.57,16.2 -23.61,6.87 -56.17,8.44 -81.06,8.27 -80.82,-0.57 -203.66,-32.23 -273.65,-69.7 -116.81,-62.54 -81.03,-217.49 -127.98,-391.18 -26.58,-98.31 -46.44,-208.07 -52.89,-312.62l164.39 298.21c58.79,77.09 131.79,168.31 220.85,233.29 62.76,45.79 132.79,71.15 213.68,120.07l-4.49 -61.27c-203.3,-79.59 -323.24,-164.45 -424.67,-362.79 56.12,-49.78 112.31,-102.67 137.41,-180.97 -51.98,-69.62 -79.49,-131.81 -132.51,-200.41 -40.24,-52.07 -128.01,-143.33 -147.02,-188.56 -17.42,4.88 -19.36,2.64 -37.57,12.24 -42.6,22.46 -17.14,6.2 -39.37,29.31 -9.63,1.08 -54.15,-37.2 -52.34,102.86 0.61,47.25 7.07,106.11 12.33,153.61 36.44,329.66 93.48,196.56 102.76,523.25 2.07,72.58 -33.74,243.9 -9.21,280.85z"/>
  <g clip-path="url(#id1)">
   <g id="_2364926342992">
    <polygon id="1" fill="#578749" points="303.69,1419.37 50.73,929.59 118.63,902.1 162.86,903.02 432.71,1278.83 "/>
   </g>
  </g>
  <path fill="none" d="M132.8 1991.98c128.38,75.07 410.74,43.23 561.63,32.28l37.1 -17.15 1.71 -41.18 -29.53 15.4c-11.86,5.18 -30.91,13.69 -39.57,16.2 -23.61,6.87 -56.17,8.44 -81.06,8.27 -80.82,-0.57 -203.66,-32.23 -273.65,-69.7 -116.81,-62.54 -81.03,-217.49 -127.98,-391.18 -26.58,-98.31 -46.44,-208.07 -52.89,-312.62l164.39 298.21c58.79,77.09 131.79,168.31 220.85,233.29 62.76,45.79 132.79,71.15 213.68,120.07l-4.49 -61.27c-203.3,-79.59 -323.24,-164.45 -424.67,-362.79 56.12,-49.78 112.31,-102.67 137.41,-180.97 -51.98,-69.62 -79.49,-131.81 -132.51,-200.41 -40.24,-52.07 -128.01,-143.33 -147.02,-188.56 -17.42,4.88 -19.36,2.64 -37.57,12.24 -42.6,22.46 -17.14,6.2 -39.37,29.31 -9.63,1.08 -54.15,-37.2 -52.34,102.86 0.61,47.25 7.07,106.11 12.33,153.61 36.44,329.66 93.48,196.56 102.76,523.25 2.07,72.58 -33.74,243.9 -9.21,280.85z"/>
  <path fill="#F4B27C" d="M298.32 1459.8c101.43,198.34 221.37,283.19 424.67,362.79l4.49 61.27 5.77 82.06 -1.71 41.18 9.14 -6.31 -8.54 -163.28c87.61,24.99 319.03,139.98 382.32,181.13l55.54 9.1 55.46 0.81c14.08,-62.85 46.46,-92.63 5.18,-134.37 -58.87,-11 -31.33,-1.21 -51.97,-29.69 -201.88,-12.58 -90,21.01 -246.75,-79.55 -42.66,-27.37 -400.25,-242.54 -401.44,-244.2 -65.28,-91.07 -33.01,-177.01 -121.63,-205.53 -8.76,32.05 -81.01,98.41 -110.52,124.57z"/>
  <path fill="#629D55" d="M733.08 1970.05l-5.84 -89.49c-80.9,-48.93 -153.69,-74.01 -216.46,-119.79 -89.06,-64.98 -142.9,-157.79 -201.7,-234.88l-183.54 -296.62c6.45,104.55 26.32,214.31 52.89,312.62 46.95,173.7 14.19,332.61 131,395.14 70,37.48 192.83,69.14 273.65,69.71 24.89,0.17 57.44,-1.4 81.06,-8.27 8.66,-2.52 27.72,-11.02 39.57,-16.2l29.36 -12.21z"/>
  <path fill="#F4AE7B" d="M246.07 542.03c42.82,19.69 96.66,93.58 131.47,129.41 20.11,-62.54 13.39,-127.39 215.79,-121.78 88.68,2.46 24.4,48.42 73.91,2.65 -15.74,-57.86 -24.23,-95.42 -43.48,-151 -22.95,-66.26 -21.69,-87.69 -20.74,-140.98 -27.23,-11.78 -9.03,0.61 -37.35,-24.85 -2.75,-2.47 -28.79,-33.74 -34.3,-39.99 -89.64,39.8 -159.15,52.72 -244.59,56.71 -20.82,38.77 4.42,31.79 -53.11,133.37 -41.62,73.49 -15.35,65.01 12.39,156.46z"/>
  <path fill="#8E6143" d="M150.9 3871.03l-9.01 80.99 32.36 -23.71c32.02,14.84 13.91,-149.57 12.79,-212.49 -1.5,-84.51 5.37,-167.45 6.17,-251.83l24.7 -706.49c2.16,-89.36 -27.15,-142.25 -20.59,-217.69 14.68,-169 -3.86,-388.49 28.98,-476.06 152,-30.92 324.18,56.06 474.18,-45.54 -150.89,10.95 -433.25,42.8 -561.63,-32.28 8.81,123.46 4.01,343.52 1.22,473.22 -3.32,154.56 10.21,294.98 13.65,455.52 6.49,302.28 13.37,656.3 -2.81,956.35z"/>
  <path fill="#64442B" d="M2262.38 3117.34c-159.52,215.51 -194.32,110.56 -257.06,51.35l-40.93 -33.89 -23.22 53.84 89.54 96.15c31.55,39.59 47.2,61.11 56.16,129.89 16.54,126.95 7.36,255.26 6.74,382.64 -13.67,42.4 -56.04,201.91 -17.73,233.47 68.28,34.62 102.94,22.91 166.61,-9 -0.51,-70.01 -46.94,-135.36 -69.67,-215.66 5.43,-105.01 -5.57,-222.82 1.22,-339.23 10.98,-188.03 30.33,-166.12 96.88,-277.55l21.26 -73.49c-7.66,-4.76 3.97,-11.25 -29.79,1.47z"/>
  <path fill="#77939A" d="M1418.83 1706.68l-23.17 44.29 -156.17 394.46 -10.64 52.72 -12.02 53.21c48.03,27.36 166.05,70.29 237.19,77.74 -35.45,-80.52 -38.92,-190.31 -37.15,-287.8 2.32,-127.75 39.71,-202.88 55.98,-309.85 68.69,21.28 114.3,45.41 180.71,73.59 58.36,24.76 131.5,50.96 193.01,72.51l6.95 -18.46c-42.34,-39.81 -136.48,-67.71 -207.17,-98.25 -5.57,-2.41 -22.34,-9.07 -33.81,-14.7l-36.14 -21.08 -131.25 -52.96 -26.34 34.58z"/>
  <path fill="#2C130C" d="M168.21 3925.3l-32.36 23.71 -6.89 64.22c78.11,17.13 259.51,44.5 331.57,32.18 113.76,-19.47 222.75,33.95 318.56,5.21 -7.58,-73.69 -100.73,-79.14 -179.8,-114.14 -86.41,-14.22 -84.05,-14.23 -166.44,24.97 -29.62,17.83 -106.05,-21.53 -149.45,-36.58l-115.2 0.42z"/>
  <path fill="#D18B59" d="M316.59 857.78c36.76,81.84 204.58,127.17 283.73,70.94l-32.56 -48.67c-21.93,-9.54 -1.73,-4.16 -15.88,-30.05 -1.12,-27.93 15.69,-65.61 -5.03,-77.61l-200.23 -115.89 -30.03 201.28z"/>
  <path fill="#482517" d="M613.18 580.89c19.87,49.94 12.19,54.85 4.21,98.52 -76.3,50.96 -146.95,35.4 -203.31,2.12 14.29,-99.83 120.59,-96.33 199.11,-100.64zm-493.51 -106.27l21.54 36.24 38.4 -6.83 25.72 31.72c44.17,8.03 46.56,32.75 39.36,72.1l15.1 30.44 -32.01 21.33 17.67 63.35c24.62,10.47 46.81,-17.45 46.87,-17.49 3.96,2.09 7.38,1.88 11.43,7.09 52.11,67.18 187.74,129.65 333.98,20.06 52.16,-49.04 50.72,-104.91 29.5,-180.3 -49.51,45.77 14.77,-0.19 -73.91,-2.65 -202.39,-5.62 -195.68,59.23 -215.78,121.78 -34.81,-35.83 -88.65,-109.72 -131.47,-129.41 -27.74,-91.45 -54.02,-82.97 -12.39,-156.46 57.53,-101.59 32.29,-94.6 53.11,-133.37 85.44,-3.99 154.95,-16.91 244.59,-56.71 5.5,6.25 31.55,37.51 34.3,39.98 28.32,25.47 10.12,13.08 37.35,24.86 -10.68,-31.8 -25.77,-87.54 -25.58,-126.27 0.31,-65.07 31.77,-44.27 8.65,-134.06l-59.51 32.15c-234.48,69.95 -573.06,128.93 -406.9,442.46z"/>
  <path fill="#88A4AB" d="M1652.32 1716.49c4.99,66.53 3.17,46 75.14,63.49 32.9,7.99 39.21,5.82 73.37,19.4 25.52,-75.41 -27.56,-146.78 -56.75,-211.6 -13,-19.98 -0.97,-8.33 -27.02,-13.85l-64.75 142.55z"/>
  <path fill="#EAAB78" d="M414.08 681.53c56.37,33.28 127.02,48.84 203.31,-2.12 7.99,-43.67 15.66,-48.58 -4.21,-98.52 -78.52,4.31 -184.82,0.81 -199.11,100.64z"/>
  <path fill="#8EA9B2" d="M1178.67 1864.5c20.64,28.48 -6.9,18.69 51.97,29.69l62.79 -167.38 102.24 24.16 23.17 -44.29c-69.72,-15.75 -61.95,-39.21 -146.09,-26.04 -50.25,54.88 -66.21,113.21 -94.08,183.87z"/>
  <path fill="#A7BCC4" d="M1652.32 1716.49c-28.1,42 6.38,7.14 -34.62,19.65l-41.28 -11.09 36.14 21.08c11.47,5.63 28.24,12.3 33.81,14.7 70.68,30.53 164.83,58.44 207.17,98.25 44.12,-91.22 9.8,-217.78 -109.45,-271.3 29.18,64.83 82.26,136.19 56.75,211.6 -34.16,-13.58 -40.47,-11.42 -73.37,-19.4 -71.97,-17.49 -70.15,3.04 -75.14,-63.49z"/>
  <path fill="#B2C7CE" d="M1664.77 2312.74c11.49,-13.64 5.29,9 29.05,-41.58 18.57,-39.51 10.91,-27.17 18.07,-63.98 -73.98,-15.06 -169.53,75.5 -161.44,155.66 110.88,30.65 87.19,-116.54 114.31,-50.1z"/>
  <path fill="#8EA9B2" d="M1228.86 2198.15l10.64 -52.72 -93.08 -42.65 23.58 -75.03 -55.54 -9.1c-17.49,55.52 -23.01,56.76 -14.73,122.72 41.79,30.89 70.1,38.52 129.13,56.78z"/>
  <path fill="#EAAB78" d="M227.79 659.61l32.01 -21.34c17.82,-47.07 -33.19,-134.66 -80.18,-134.25l-38.4 6.83c-39.22,57.44 18.44,131.18 86.58,148.76z"/>
  <path fill="#CDD6AE" d="M2387.22 3838.4l41.8 -56c-18.88,-44.28 -14.83,-52.88 -89.53,-13.52 -0.99,0.52 -6.26,5.44 -6.97,3.24 -0.72,-2.25 -4.99,1.67 -7.32,2.85 12.76,18.03 8.66,17.32 27.68,36.94 19,19.59 12.62,11.53 34.34,26.49z"/>
  <path fill="#B5CE70" d="M1180.31 3742.57c20.15,25.31 -5.98,7.51 66.05,4.29 0.88,-1.2 11.18,-6.52 17.63,-28.69 5.9,-20.26 5.39,-37.58 7.31,-57.57l-43.11 61.34 -25.16 -73.17 -22.71 93.79z"/>
  <path fill="#C5D98F" d="M-0 3842.24c29.81,64.91 10.58,21.19 33.56,42.6l36.35 0.72 3.27 -96.42 -39.95 66.97 -32 -70 -1.22 56.12z"/>
  <ellipse fill="#37160A" transform="matrix(0.871435 -0.490511 0.490511 0.871435 407.254 465.401)" rx="19.15" ry="30.32"/>
  <ellipse fill="#37160A" transform="matrix(0.976406 -0.215941 0.215941 0.976406 568.153 412.888)" rx="19.15" ry="30.32"/>
  <path fill="#37160A" d="M323.82 420.4c0,0 35.72,-29.27 47.28,-26.62 11.57,2.65 47.17,7.33 47.17,7.33 0,0 36.42,-0.36 16.42,-14.74 -20,-14.38 -59.77,-16.72 -59.77,-16.72 0,0 -54.06,19.44 -52.58,35.09 1.48,15.65 1.48,15.65 1.48,15.65z"/>
  <path fill="#37160A" d="M527.91 367.31l34.98 -22.44c0,0 9.26,6.69 13.69,9.69 4.43,3 15.78,-6.13 8.39,-11.13 -7.39,-5 -1.44,-22.08 -18,-17.34 -16.56,4.75 -48.59,29.18 -48.59,29.18 0,0 -15.46,19.69 9.52,12.04z"/>
  <path fill="none" stroke="#37160A" stroke-width="6.03" stroke-miterlimit="22.9256" d="M461.01 623.58c0,0 92.09,31.03 122.68,-22.81"/>
  <path fill="#482517" d="M156.59 558.65c1.58,-16.78 28.99,-22.21 43.78,-18.43 6.49,1.66 14.07,20.59 8.78,23.66l-26.58 15.42c0,0 44.62,-27.96 55.55,-3.8l17.74 39.24c17.11,37.84 -19.73,-53.43 -29.74,-65.45 -9.29,-11.15 -103.03,-48.38 -69.52,9.36z"/>
 </g>
</svg>
