<?xml version="1.0" encoding="UTF-8"?>
<!DOCTYPE svg PUBLIC "-//W3C//DTD SVG 1.1//EN" "http://www.w3.org/Graphics/SVG/1.1/DTD/svg11.dtd">
<!-- Creator: CorelDRAW 2018 (64-Bit Evaluation Version) -->
<svg xmlns="http://www.w3.org/2000/svg" xml:space="preserve" width="93.4506mm" height="131.015mm" version="1.1" shape-rendering="geometricPrecision" text-rendering="geometricPrecision" image-rendering="optimizeQuality" fill-rule="evenodd" clip-rule="evenodd"
viewBox="0 0 8967.2 12571.73"
 xmlns:xlink="http://www.w3.org/1999/xlink">
 <defs>
   <clipPath id="id0">
    <path d="M544.82 12145.33l366.54 -1.33 31.49 -225.52c90.51,-65.36 -59.59,4.48 118.89,-66.32 15.8,-6.28 96.3,-21.88 114.54,-25.27l-215.45 28.43c50.85,-506.27 219.29,-2120.73 384.1,-2456.16 0.24,429.82 -23.87,750.78 6.45,1168.16 29.17,401.4 32.26,824.88 32.2,1228.59l3.3 464.46c262.12,-124.73 254.62,-124.71 529.57,-79.45l16.97 -438.64 432.88 -5749.14 -29.09 20.07 -118.04 54.58c-477.27,323.28 -1025.13,46.5 -1508.75,144.89 -104.5,278.63 -45.49,977 -92.21,1514.72 -20.86,240.01 72.4,408.31 65.53,692.63l-78.58 2247.9c-2.53,268.5 -24.4,532.4 -19.62,801.28 3.56,200.2 61.18,723.33 -40.7,676.11z"/>
   </clipPath>
   <clipPath id="id1">
    <path d="M422.55 5993.89c408.48,238.86 1306.9,137.54 1787.01,102.69l118.04 -54.58 5.44 -131.04 -93.96 49.01c-37.73,16.49 -98.37,43.55 -125.91,51.56 -75.11,21.85 -178.72,26.87 -257.9,26.31 -257.16,-1.81 -647.99,-102.55 -870.7,-221.78 -371.66,-198.98 -257.84,-692 -407.22,-1244.67 -84.56,-312.82 -147.76,-662.05 -168.29,-994.7l523.06 948.86c187.06,245.29 419.32,535.54 702.69,742.28 199.7,145.68 422.5,226.38 679.89,382.05l-14.28 -194.95c-646.85,-253.25 -1028.5,-523.24 -1351.22,-1154.32 178.58,-158.41 357.34,-326.67 437.22,-575.8 -165.38,-221.51 -252.91,-419.41 -421.61,-637.68 -128.03,-165.67 -407.31,-456.03 -467.78,-599.96 -55.42,15.54 -61.6,8.4 -119.55,38.94 -135.56,71.46 -54.53,19.73 -125.26,93.27 -30.63,3.44 -172.29,-118.37 -166.53,327.27 1.95,150.34 22.5,337.61 39.22,488.76 115.95,1048.92 297.44,625.43 326.96,1664.88 6.57,230.92 -107.37,776.03 -29.3,893.6z"/>
   </clipPath>
 </defs>
 <g id="Layer_x0020_1">
  <metadata id="CorelCorpID_0Corel-Layer"/>
  <path fill="#D18B59" d="M1001.4 2385.11c116.95,260.4 650.92,404.63 902.79,225.73l-103.61 -154.85c-69.77,-30.35 -5.49,-13.25 -50.52,-95.62 -3.57,-88.87 49.91,-208.76 -16.02,-246.93l-637.08 -368.74 -95.55 640.42z"/>
  <path fill="#A47450" d="M544.82 12145.33l366.54 -1.33 31.49 -225.52c90.51,-65.36 -59.59,4.48 118.89,-66.32 15.8,-6.28 96.3,-21.88 114.54,-25.27l-215.45 28.43c50.85,-506.27 219.29,-2120.73 384.1,-2456.16 0.24,429.82 -23.87,750.78 6.45,1168.16 29.17,401.4 32.26,824.88 32.2,1228.59l3.3 464.46c262.12,-124.73 254.62,-124.71 529.57,-79.45l16.97 -438.64 432.88 -5749.14 -29.09 20.07 -118.04 54.58c-477.27,323.28 -1025.13,46.5 -1508.75,144.89 -104.5,278.63 -45.49,977 -92.21,1514.72 -20.86,240.01 72.4,408.31 65.53,692.63l-78.58 2247.9c-2.53,268.5 -24.4,532.4 -19.62,801.28 3.56,200.2 61.18,723.33 -40.7,676.11z"/>
  <g clip-path="url(#id0)">
   <g id="_2364926340368">
    <path id="1" fill="#8E6143" d="M1490.02 12211.7c0,0 -75,-3922.52 107.8,-4511.54 0,0 -437.67,291.43 -345.28,995.22 92.39,703.79 45.69,3457.93 45.69,3457.93l66.01 203.11 125.78 -144.72z"/>
   </g>
  </g>
  <path fill="none" d="M544.82 12145.33l366.54 -1.33 31.49 -225.52c90.51,-65.36 -59.59,4.48 118.89,-66.32 15.8,-6.28 96.3,-21.88 114.54,-25.27l-215.45 28.43c50.85,-506.27 219.29,-2120.73 384.1,-2456.16 0.24,429.82 -23.87,750.78 6.45,1168.16 29.17,401.4 32.26,824.88 32.2,1228.59l3.3 464.46c262.12,-124.73 254.62,-124.71 529.57,-79.45l16.97 -438.64 432.88 -5749.14 -29.09 20.07 -118.04 54.58c-477.27,323.28 -1025.13,46.5 -1508.75,144.89 -104.5,278.63 -45.49,977 -92.21,1514.72 -20.86,240.01 72.4,408.31 65.53,692.63l-78.58 2247.9c-2.53,268.5 -24.4,532.4 -19.62,801.28 3.56,200.2 61.18,723.33 -40.7,676.11z"/>
  <path fill="#67AD54" d="M6367.98 7872.43l31.19 121.81c-101.93,252.84 -292.09,-177.93 -539.66,92.91l-47.17 55.48c-148.4,226.08 -27.36,589.36 86.63,641.38 282.07,13.67 132.73,-24.91 334.92,-86.58l655.34 58.02c288.02,86.27 -254.22,123.45 287.16,134.53 -58.1,135.49 -67.19,-9.39 -18.52,210.48 94.79,46.51 170.19,54.74 326.46,55.17 -121.76,212.04 -97.3,222.45 57.29,367.85l-10.93 196.71 45.34 151.04c175.21,-57.24 180.47,-92.58 286.58,-139.33 217.31,-95.73 8.75,-25.25 285.55,60.1 781.86,-430.11 163.81,-56.59 549,-565.73 114.51,-151.34 153.89,-83.12 270.06,-156.16 -204.42,-302.19 -126.37,-70.91 -13.63,-364.95l-272.17 26.33c-35.2,-109.24 3.36,-81.44 -91.39,-134.75 -4.01,-2.25 -267.33,-87.93 -291.92,-96.73 -8.7,10.45 -17.74,15.67 -21.96,34.36 -37.43,165.68 -344.32,176.68 -462,211.34 -72.37,-487.67 247.47,30.29 -20.92,-429.45l198.22 -28.25c-135.02,-420.34 -119.01,-46.26 -10.99,-450.39l-411.63 -91.72c-343.99,-145.99 -17.31,-139.31 -343.19,-234.18l-56.79 355.18c-199.23,-16 -196.49,72.79 -198.13,75.61l-281.87 3.28c-25.93,-127.44 23.43,-44.67 -40.16,-135.81l-280.7 62.46z"/>
  <path fill="#549342" d="M6176.44 9801.46l73.89 -171.32 287.36 21.28c5.5,-9.6 29.22,-56.67 37.34,-68.41 88.85,-128.3 154.7,-114.86 323.58,-262.97l253.1 75.11 -75.55 133.28 122.32 46.15c107.43,-40.46 70.4,-19.8 94.79,-4.66l-67.64 233.84 305.07 -83.57 10.93 -196.71c-154.59,-145.4 -179.05,-155.8 -57.29,-367.85 -156.27,-0.42 -231.68,-8.66 -326.46,-55.17 -48.67,-219.87 -39.58,-74.99 18.52,-210.48 -541.38,-11.08 0.86,-48.26 -287.16,-134.53l-655.34 -58.02c-202.19,61.67 -52.84,100.26 -334.92,86.58 -113.99,-52.03 -235.03,-415.3 -86.63,-641.38l47.17 -55.48c247.57,-270.85 437.73,159.92 539.66,-92.91l-31.19 -121.81c-22,-281.46 -95.95,-123.71 -331.12,-240.84 -325.63,-162.17 84.04,91.66 -112.74,-90.24 -5.61,-5.18 -15.29,-19.58 -25.16,-26.85 -322.09,168.52 111.71,87.5 -370.22,195.51 -8.34,1.87 -26.77,3.82 -38.1,10.56l61.52 301.58 -254.24 95.88c10.56,209.33 38.36,155.53 111.87,326.67 -174.73,16.56 -63.84,-9.5 -185.16,51.71 -0.37,0.2 -169,112.95 -175.97,118.52 -264.59,211.49 55.89,41.78 -349.65,255.23 38.69,158.46 140.18,113.45 29.62,278.95 -7,10.47 -19.24,23.18 -26.66,32.97l270.76 51.3c-137.76,75.31 -120.51,75.9 -170.07,201.37l446.78 12.39 49.72 155.12 251.22 -58.85c35.62,68.78 -1.3,152.43 48.67,244.32 149.99,-55.03 219.52,-134.43 314.07,-194.09 132.84,177.09 21.08,161.08 263.31,207.8z"/>
  <path fill="#629D55" d="M487.42 2487.18c60.47,143.93 339.74,434.29 467.78,599.96 168.7,218.27 256.23,416.17 421.61,637.68l-27.51 85.8c-5.91,10.94 -19.67,35.2 -25.8,46.17 -6.63,11.92 -21.34,31.75 -32.25,47.45 281.97,90.72 179.31,364.16 387.01,653.94 102.14,142.53 496.31,480.65 628.14,480.33 28.93,-238.72 113.81,-308.83 105.01,-595.55 -55.22,-1798.41 132.67,-1923.81 -624.12,-2006.18l103.61 154.85c-251.87,178.9 -766.65,53.87 -883.6,-206.53l-519.89 102.06z"/>
  <path fill="#8EA9B2" d="M3871.73 6819.2c-174.79,133.41 5.8,118.72 529.09,328.19 247.73,99.16 508.86,212.6 748.4,295.93l147.74 -428.83c-86.28,-211.39 -10.91,256.92 -363.71,159.4 -25.75,-255.05 278.26,-543.2 513.67,-495.27 210.68,-314.11 -8.39,-438.89 716.04,-498.76 141.41,-11.69 297.46,-10.92 411.89,-79.89l-66.09 -48.44c-41.45,-21.54 -2.88,-15.05 -111.08,-50.42 -30.64,-10.02 -163.89,-33.46 -206.32,-41.69 -140.52,-27.28 -269.01,-58.99 -399.68,-88.58l83.79 -241.04c-195.73,-68.56 -428.44,-151.93 -614.13,-230.72 -211.31,-89.63 -356.42,-166.44 -574.98,-234.13 -51.75,340.35 -170.73,579.4 -178.11,985.89 -5.64,310.18 5.38,659.51 118.19,915.71 -226.37,-23.69 -601.88,-160.3 -754.7,-247.35z"/>
  <path fill="#538543" d="M422.55 5993.89c408.48,238.86 1306.9,137.54 1787.01,102.69l118.04 -54.58 5.44 -131.04 -93.96 49.01c-37.73,16.49 -98.37,43.55 -125.91,51.56 -75.11,21.85 -178.72,26.87 -257.9,26.31 -257.16,-1.81 -647.99,-102.55 -870.7,-221.78 -371.66,-198.98 -257.84,-692 -407.22,-1244.67 -84.56,-312.82 -147.76,-662.05 -168.29,-994.7l523.06 948.86c187.06,245.29 419.32,535.54 702.69,742.28 199.7,145.68 422.5,226.38 679.89,382.05l-14.28 -194.95c-646.85,-253.25 -1028.5,-523.24 -1351.22,-1154.32 178.58,-158.41 357.34,-326.67 437.22,-575.8 -165.38,-221.51 -252.91,-419.41 -421.61,-637.68 -128.03,-165.67 -407.31,-456.03 -467.78,-599.96 -55.42,15.54 -61.6,8.4 -119.55,38.94 -135.56,71.46 -54.53,19.73 -125.26,93.27 -30.63,3.44 -172.29,-118.37 -166.53,327.27 1.95,150.34 22.5,337.61 39.22,488.76 115.95,1048.92 297.44,625.43 326.96,1664.88 6.57,230.92 -107.37,776.03 -29.3,893.6z"/>
  <g clip-path="url(#id1)">
   <g id="_2364926344528">
    <polygon id="1" fill="#578749" points="966.27,4171.97 161.42,2613.58 377.46,2526.12 518.18,2529.04 1376.81,3724.81 "/>
   </g>
  </g>
  <path fill="none" d="M422.55 5993.89c408.48,238.86 1306.9,137.54 1787.01,102.69l118.04 -54.58 5.44 -131.04 -93.96 49.01c-37.73,16.49 -98.37,43.55 -125.91,51.56 -75.11,21.85 -178.72,26.87 -257.9,26.31 -257.16,-1.81 -647.99,-102.55 -870.7,-221.78 -371.66,-198.98 -257.84,-692 -407.22,-1244.67 -84.56,-312.82 -147.76,-662.05 -168.29,-994.7l523.06 948.86c187.06,245.29 419.32,535.54 702.69,742.28 199.7,145.68 422.5,226.38 679.89,382.05l-14.28 -194.95c-646.85,-253.25 -1028.5,-523.24 -1351.22,-1154.32 178.58,-158.41 357.34,-326.67 437.22,-575.8 -165.38,-221.51 -252.91,-419.41 -421.61,-637.68 -128.03,-165.67 -407.31,-456.03 -467.78,-599.96 -55.42,15.54 -61.6,8.4 -119.55,38.94 -135.56,71.46 -54.53,19.73 -125.26,93.27 -30.63,3.44 -172.29,-118.37 -166.53,327.27 1.95,150.34 22.5,337.61 39.22,488.76 115.95,1048.92 297.44,625.43 326.96,1664.88 6.57,230.92 -107.37,776.03 -29.3,893.6z"/>
  <path fill="#F4B27C" d="M949.19 4300.61c322.72,631.08 704.37,901.07 1351.22,1154.32l14.28 194.95 18.35 261.09 -5.44 131.04 29.09 -20.07 -27.17 -519.52c278.74,79.53 1015.08,445.38 1216.45,576.33l176.73 28.96 176.47 2.58c44.81,-199.97 147.83,-294.74 16.48,-427.53 -187.32,-34.99 -99.7,-3.86 -165.37,-94.46 -642.34,-40.02 -286.37,66.86 -785.11,-253.11 -135.73,-87.08 -1273.53,-771.7 -1277.32,-777 -207.7,-289.78 -105.04,-563.23 -387.01,-653.94 -27.87,101.99 -257.77,313.13 -351.65,396.37z"/>
  <path fill="#629D55" d="M2332.5 5924.12l-18.58 -284.73c-257.39,-155.67 -489.02,-235.48 -688.72,-381.16 -283.37,-206.74 -454.69,-502.05 -641.76,-747.35l-583.99 -943.79c20.53,332.64 83.73,681.88 168.29,994.7 149.39,552.67 45.15,1058.31 416.81,1257.26 222.72,119.25 613.54,219.99 870.71,221.8 79.18,0.54 182.78,-4.46 257.9,-26.31 27.56,-8 88.18,-35.06 125.91,-51.56l93.42 -38.86z"/>
  <path fill="#F4AE7B" d="M1194.79 1171.7c87.99,121.41 121.96,410.33 162.55,564 153.37,-142.03 235.96,-332.33 788.37,-0.88 242.04,145.23 -7.91,172.35 200.81,122.71 46.65,-184.99 81.75,-302.39 115.12,-486.55 39.76,-219.53 76.72,-277 162.52,-423.27 -57.11,-75.14 -25.98,-12.4 -64.76,-127.2 -3.77,-11.15 -27.19,-138.47 -32.69,-164.39 -310.66,-29.54 -523.56,-102.21 -766.68,-224.49 -118.25,75.02 -37.35,95.04 -355.4,286.92 -230.1,138.8 -144,156.28 -209.83,453.16z"/>
  <path fill="#8E6143" d="M480.14 11972.68l-28.67 257.69 102.95 -75.44c101.88,47.22 44.26,-475.91 40.7,-676.11 -4.78,-268.88 17.09,-532.78 19.62,-801.28l78.58 -2247.9c6.87,-284.32 -86.39,-452.63 -65.53,-692.63 46.72,-537.72 -12.28,-1236.09 92.21,-1514.72 483.62,-98.39 1031.49,178.38 1508.75,-144.89 -480.11,34.85 -1378.53,136.17 -1787.01,-102.69 28.02,392.82 12.75,1093 3.9,1505.69 -10.57,491.77 32.47,938.57 43.44,1449.37 20.65,961.81 42.55,2088.23 -8.94,3042.92z"/>
  <path fill="#64442B" d="M7198.46 9574.59c-507.56,685.73 -618.29,351.8 -817.91,163.38l-130.22 -107.83 -73.89 171.32 284.89 305.94c100.39,125.95 150.19,194.45 178.7,413.29 52.63,403.93 23.4,812.19 21.44,1217.49 -43.51,134.91 -178.32,642.45 -56.41,742.85 217.26,110.14 327.55,72.91 530.12,-28.62 -1.62,-222.76 -149.36,-430.69 -221.69,-686.18 17.29,-334.11 -17.72,-708.98 3.89,-1079.36 34.93,-598.26 96.51,-528.55 308.24,-883.1l67.64 -233.84c-24.38,-15.13 12.65,-35.8 -94.79,4.66z"/>
  <path fill="#77939A" d="M4514.44 5086.12l-73.71 140.93 -496.89 1255.08 -33.84 167.75 -38.26 169.32c152.82,87.05 528.33,223.66 754.7,247.35 -112.81,-256.2 -123.83,-605.53 -118.19,-915.71 7.39,-406.49 126.37,-645.54 178.11,-985.89 218.56,67.7 363.68,144.5 574.98,234.13 185.7,78.79 418.4,162.16 614.13,230.72l22.12 -58.74c-134.71,-126.66 -434.26,-215.44 -659.16,-312.6 -17.72,-7.66 -71.08,-28.87 -107.58,-46.78l-114.98 -67.08 -417.61 -168.51 -83.82 110.03z"/>
  <path fill="#2C130C" d="M535.23 12145.33l-102.95 75.44 -21.93 204.34c248.54,54.5 825.71,141.6 1055,102.38 361.97,-61.94 708.74,108.02 1013.59,16.59 -24.12,-234.48 -320.5,-251.8 -572.09,-363.16 -274.94,-45.25 -267.44,-45.28 -529.57,79.45 -94.26,56.73 -337.44,-68.51 -475.52,-116.38l-366.54 1.33z"/>
  <path fill="#482517" d="M2152.04 1852.38c-22.84,169.47 -51.79,171.11 -142.09,279.74 -291.08,22.21 -462.69,-131.2 -567.05,-311.44 195.42,-254.5 484.7,-78.89 709.14,31.69zm-1202.51 -1064.88l3.17 134.11 117.14 40.98 21.81 128.09c109.94,91.18 77.99,163.47 -3.38,261.34l-5.63 107.96 -122.05 9.2 -49.88 203.22c51.91,67.46 157.04,24.67 157.24,24.65 7.71,11.98 17.55,16.73 20.63,37.49 39.64,267.59 318.21,652.51 894.75,576.87 221.18,-54.57 304.37,-211.73 363.19,-453.89 -208.72,49.64 41.23,22.52 -200.81,-122.71 -552.41,-331.44 -635,-141.15 -788.37,0.88 -40.59,-153.67 -74.56,-442.59 -162.55,-564 65.83,-296.87 -20.28,-314.35 209.83,-453.16 318.06,-191.88 237.16,-211.9 355.4,-286.92 243.13,122.28 456.02,194.96 766.68,224.49 5.5,25.92 28.92,153.24 32.69,164.39 38.79,114.8 7.65,52.06 64.76,127.2 20.03,-104.84 65.18,-282.95 126.13,-390.03 102.4,-179.94 157.2,-73.18 233.21,-358.22l-215.2 -3.72c-759.33,-172 -1790.17,-536.91 -1818.78,591.77z"/>
  <path fill="#88A4AB" d="M5257.36 5117.35c15.88,211.69 10.09,146.37 239.09,202.02 104.67,25.41 124.75,18.53 233.44,61.74 81.19,-239.95 -87.69,-467.01 -180.55,-673.28 -41.36,-63.58 -3.09,-26.51 -85.96,-44.05l-206.02 453.58z"/>
  <path fill="#EAAB78" d="M1442.9 1820.69c104.35,180.24 275.96,333.65 567.05,311.44 90.3,-108.63 119.25,-110.27 142.09,-279.74 -224.44,-110.58 -513.72,-286.19 -709.14,-31.69z"/>
  <path fill="#8EA9B2" d="M3750.28 5588.3c65.67,90.6 -21.95,59.47 165.37,94.46l199.77 -532.57 325.3 76.86 73.71 -140.93c-221.82,-50.1 -197.1,-124.75 -464.82,-82.87 -159.87,174.61 -210.68,360.22 -299.34,585.05z"/>
  <path fill="#A7BCC4" d="M5257.36 5117.35c-89.4,133.65 20.29,22.71 -110.15,62.53l-131.34 -35.27 114.98 67.08c36.49,17.91 89.85,39.12 107.58,46.78 224.9,97.16 524.45,185.94 659.16,312.6 140.38,-290.25 31.2,-692.92 -348.26,-863.24 92.86,206.27 261.74,433.33 180.55,673.28 -108.69,-43.21 -128.77,-36.33 -233.44,-61.74 -229,-55.65 -223.2,9.67 -239.09,-202.02z"/>
  <path fill="#B2C7CE" d="M5296.97 7014.49c36.55,-43.41 16.82,28.62 92.44,-132.3 59.1,-125.72 34.72,-86.44 57.51,-203.56 -235.4,-47.93 -539.41,240.22 -513.67,495.27 352.8,97.52 277.43,-370.8 363.71,-159.4z"/>
  <path fill="#8EA9B2" d="M3909.99 6649.89l33.84 -167.75 -296.17 -135.71 75.04 -238.72 -176.73 -28.96c-55.65,176.67 -73.22,180.6 -46.86,390.49 132.97,98.3 223.03,122.56 410.88,180.66z"/>
  <path fill="#EAAB78" d="M960.59 1469.19l122.05 -9.2c122.87,-102.71 118.14,-425.19 -12.8,-497.39l-117.14 -40.98c-198.39,98.06 -153.6,392.51 7.9,547.58z"/>
  <path fill="#CDD6AE" d="M7595.66 11868.85l133.01 -178.18c-60.09,-140.9 -47.19,-168.24 -284.87,-43.01 -3.14,1.65 -19.93,17.31 -22.17,10.3 -2.3,-7.16 -15.87,5.32 -23.3,9.08 40.59,57.37 27.55,55.12 88.06,117.53 60.45,62.32 40.15,36.68 109.27,84.29z"/>
  <path fill="#B5CE70" d="M3755.5 11563.92c64.11,80.52 -19.03,23.89 210.16,13.65 2.79,-3.81 35.56,-20.74 56.1,-91.28 18.76,-64.46 17.16,-119.58 23.25,-183.16l-137.18 195.17 -80.07 -232.8 -72.26 298.43z"/>
  <path fill="#C5D98F" d="M-0 11881.07c94.84,206.53 33.66,67.44 106.77,135.55l115.67 2.3 10.39 -306.78 -127.1 213.09 -101.83 -222.73 -3.9 178.58z"/>
  <ellipse fill="#37160A" cx="1761.29" cy="1210.78" rx="60.93" ry="96.47"/>
  <ellipse fill="#37160A" transform="matrix(0.956796 0.29076 -0.29076 0.956796 2289.38 1316.29)" rx="60.93" ry="96.47"/>
  <path fill="#37160A" d="M1600.2 955.78c0,0 144.71,-25.39 172.65,0 27.93,25.39 119.33,93.94 119.33,93.94 0,0 101.56,55.85 68.55,-15.24 -33.01,-71.08 -139.65,-139.64 -139.65,-139.64 0,0 -180.25,-30.48 -200.57,15.23 -20.31,45.7 -20.31,45.7 -20.31,45.7z"/>
  <path fill="#37160A" d="M2248.94 1127.1l132.02 -7.62c0,0 15.23,33 22.85,48.24 7.62,15.24 53.32,7.62 40.63,-17.77 -12.7,-25.39 30.48,-63.48 -22.85,-76.17 -53.32,-12.69 -180.26,5.09 -180.26,5.09 0,0 -73.62,30.47 7.62,48.24z"/>
  <path fill="none" stroke="#37160A" stroke-width="19.19" stroke-miterlimit="22.9256" d="M1663.47 1733.28c0,0 206.92,229.76 375.76,128.21"/>
  <path fill="#482517" d="M920.71 1078.12c30.58,-44.07 115.04,-16.33 150.15,17.23 15.42,14.73 6.88,79.06 -12.59,79.3l-97.75 1.27c0,0 167.37,-7.88 159.95,76.17l-12.05 136.47c-11.62,131.63 28.69,-178.95 19.67,-227.88 -8.37,-45.41 -210.17,-294.95 -207.38,-82.56z"/>
 </g>
</svg>
