<?xml version="1.0" encoding="UTF-8"?>
<!DOCTYPE svg PUBLIC "-//W3C//DTD SVG 1.1//EN" "http://www.w3.org/Graphics/SVG/1.1/DTD/svg11.dtd">
<!-- Creator: CorelDRAW 2018 (64-Bit Evaluation Version) -->
<svg xmlns="http://www.w3.org/2000/svg" xml:space="preserve" width="93.4506mm" height="132.371mm" version="1.1" shape-rendering="geometricPrecision" text-rendering="geometricPrecision" image-rendering="optimizeQuality" fill-rule="evenodd" clip-rule="evenodd"
viewBox="0 0 1619.9 2294.57"
 xmlns:xlink="http://www.w3.org/1999/xlink">
 <defs>
   <clipPath id="id0">
    <path d="M98.42 2217.54l66.21 -0.24 5.69 -40.74c16.35,-11.81 -10.76,0.81 21.48,-11.98 2.85,-1.13 17.4,-3.95 20.69,-4.56l-38.92 5.14c9.19,-91.46 39.61,-383.1 69.39,-443.7 0.04,77.65 -4.31,135.63 1.16,211.02 5.27,72.51 5.83,149.01 5.82,221.94l0.6 83.9c47.35,-22.53 46,-22.53 95.66,-14.35l3.06 -79.24 78.2 -1038.57 -5.26 3.63 -21.32 9.86c-86.22,58.4 -185.19,8.4 -272.55,26.17 -18.88,50.33 -8.22,176.49 -16.66,273.63 -3.77,43.36 13.08,73.76 11.84,125.12l-14.2 406.08c-0.46,48.5 -4.41,96.18 -3.54,144.75 0.64,36.17 11.05,130.67 -7.35,122.14z"/>
   </clipPath>
   <clipPath id="id1">
    <path d="M76.33 1106.3c73.79,43.15 236.09,24.85 322.82,18.55l21.32 -9.86 0.98 -23.67 -16.97 8.85c-6.82,2.98 -17.77,7.87 -22.75,9.31 -13.57,3.95 -32.29,4.85 -46.59,4.75 -46.46,-0.33 -117.06,-18.53 -157.29,-40.06 -67.14,-35.94 -46.58,-125.01 -73.56,-224.85 -15.28,-56.51 -26.69,-119.6 -30.4,-179.69l94.49 171.41c33.79,44.31 75.75,96.74 126.94,134.09 36.07,26.32 76.32,40.9 122.82,69.02l-2.58 -35.22c-116.85,-45.75 -185.8,-94.52 -244.1,-208.53 32.26,-28.62 64.55,-59.01 78.98,-104.02 -29.88,-40.01 -45.69,-75.76 -76.16,-115.2 -23.13,-29.93 -73.58,-82.38 -84.5,-108.38 -10.01,2.81 -11.13,1.52 -21.6,7.03 -24.49,12.91 -9.85,3.56 -22.63,16.85 -5.53,0.62 -31.12,-21.38 -30.08,59.12 0.35,27.16 4.06,60.99 7.08,88.29 20.95,189.49 53.73,112.98 59.07,300.76 1.19,41.72 -19.4,140.19 -5.29,161.43z"/>
   </clipPath>
 </defs>
 <g id="Layer_x0020_1">
  <metadata id="CorelCorpID_0Corel-Layer"/>
  <path fill="#A47450" d="M98.42 2217.54l66.21 -0.24 5.69 -40.74c16.35,-11.81 -10.76,0.81 21.48,-11.98 2.85,-1.13 17.4,-3.95 20.69,-4.56l-38.92 5.14c9.19,-91.46 39.61,-383.1 69.39,-443.7 0.04,77.65 -4.31,135.63 1.16,211.02 5.27,72.51 5.83,149.01 5.82,221.94l0.6 83.9c47.35,-22.53 46,-22.53 95.66,-14.35l3.06 -79.24 78.2 -1038.57 -5.26 3.63 -21.32 9.86c-86.22,58.4 -185.19,8.4 -272.55,26.17 -18.88,50.33 -8.22,176.49 -16.66,273.63 -3.77,43.36 13.08,73.76 11.84,125.12l-14.2 406.08c-0.46,48.5 -4.41,96.18 -3.54,144.75 0.64,36.17 11.05,130.67 -7.35,122.14z"/>
  <g clip-path="url(#id0)">
   <g id="_2364921444128">
    <path id="1" fill="#8E6143" d="M269.17 2229.53c0,0 -13.55,-708.59 19.47,-815 0,0 -79.06,52.65 -62.37,179.78 16.69,127.14 8.25,624.67 8.25,624.67l11.92 36.69 22.72 -26.14z"/>
   </g>
  </g>
  <path fill="none" d="M98.42 2217.54l66.21 -0.24 5.69 -40.74c16.35,-11.81 -10.76,0.81 21.48,-11.98 2.85,-1.13 17.4,-3.95 20.69,-4.56l-38.92 5.14c9.19,-91.46 39.61,-383.1 69.39,-443.7 0.04,77.65 -4.31,135.63 1.16,211.02 5.27,72.51 5.83,149.01 5.82,221.94l0.6 83.9c47.35,-22.53 46,-22.53 95.66,-14.35l3.06 -79.24 78.2 -1038.57 -5.26 3.63 -21.32 9.86c-86.22,58.4 -185.19,8.4 -272.55,26.17 -18.88,50.33 -8.22,176.49 -16.66,273.63 -3.77,43.36 13.08,73.76 11.84,125.12l-14.2 406.08c-0.46,48.5 -4.41,96.18 -3.54,144.75 0.64,36.17 11.05,130.67 -7.35,122.14z"/>
  <path fill="#67AD54" d="M1150.36 1445.65l5.63 22c-18.41,45.67 -52.77,-32.14 -97.49,16.78l-8.52 10.02c-26.81,40.84 -4.94,106.47 15.65,115.86 50.96,2.47 23.98,-4.5 60.5,-15.64l118.38 10.48c52.03,15.59 -45.92,22.3 51.87,24.3 -10.5,24.48 -12.14,-1.7 -3.35,38.02 17.12,8.4 30.74,9.89 58.97,9.97 -22,38.31 -17.58,40.18 10.35,66.45l-1.97 35.54 8.19 27.28c31.65,-10.34 32.6,-16.72 51.77,-25.17 39.26,-17.29 1.58,-4.56 51.58,10.86 141.24,-77.7 29.59,-10.22 99.17,-102.2 20.69,-27.34 27.8,-15.02 48.79,-28.21 -36.93,-54.59 -22.83,-12.81 -2.46,-65.93l-49.17 4.76c-6.36,-19.73 0.61,-14.71 -16.51,-24.34 -0.72,-0.41 -48.29,-15.89 -52.73,-17.47 -1.57,1.89 -3.21,2.83 -3.97,6.21 -6.76,29.93 -62.2,31.92 -83.46,38.18 -13.07,-88.1 44.71,5.47 -3.78,-77.58l35.81 -5.1c-24.39,-75.93 -21.5,-8.36 -1.98,-81.36l-74.36 -16.57c-62.14,-26.37 -3.13,-25.17 -62,-42.3l-10.26 64.16c-35.99,-2.89 -35.5,13.15 -35.79,13.66l-50.92 0.59c-4.68,-23.02 4.23,-8.07 -7.25,-24.53l-50.71 11.28z"/>
  <path fill="#549342" d="M1115.76 1794.13l13.35 -30.95 51.91 3.84c0.99,-1.73 5.28,-10.24 6.74,-12.36 16.05,-23.18 27.95,-20.75 58.45,-47.5l45.72 13.57 -13.65 24.08 22.1 8.34c19.41,-7.31 12.72,-3.58 17.12,-0.84l-12.22 42.24 55.11 -15.1 1.97 -35.54c-27.93,-26.27 -32.34,-28.15 -10.35,-66.45 -28.23,-0.08 -41.85,-1.56 -58.97,-9.97 -8.79,-39.72 -7.15,-13.55 3.35,-38.02 -97.8,-2 0.16,-8.72 -51.87,-24.3l-118.38 -10.48c-36.53,11.14 -9.55,18.11 -60.5,15.64 -20.59,-9.4 -42.46,-75.02 -15.65,-115.86l8.52 -10.02c44.72,-48.93 79.08,28.89 97.49,-16.78l-5.63 -22c-3.97,-50.85 -17.33,-22.35 -59.82,-43.51 -58.82,-29.3 15.18,16.56 -20.37,-16.3 -1.01,-0.94 -2.76,-3.54 -4.55,-4.85 -58.18,30.44 20.18,15.81 -66.88,35.32 -1.51,0.34 -4.84,0.69 -6.88,1.91l11.11 54.48 -45.93 17.32c1.91,37.81 6.93,28.1 20.21,59.01 -31.56,2.99 -11.53,-1.72 -33.45,9.34 -0.07,0.04 -30.53,20.4 -31.79,21.41 -47.8,38.2 10.1,7.55 -63.16,46.11 6.99,28.63 25.32,20.49 5.35,50.39 -1.26,1.89 -3.48,4.19 -4.82,5.96l48.91 9.27c-24.89,13.6 -21.77,13.71 -30.72,36.38l80.71 2.24 8.98 28.02 45.38 -10.63c6.43,12.43 -0.23,27.54 8.79,44.14 27.1,-9.94 39.66,-24.28 56.74,-35.06 24,31.99 3.81,29.1 47.57,37.54z"/>
  <path fill="#629D55" d="M88.05 472.82c10.92,26 61.37,78.45 84.5,108.38 30.48,39.43 46.29,75.18 76.16,115.2l-4.97 15.5c-1.07,1.98 -3.55,6.36 -4.66,8.34 -1.2,2.15 -3.86,5.74 -5.83,8.57 50.94,16.39 32.39,65.79 69.91,118.13 18.45,25.75 89.66,86.83 113.47,86.77 5.23,-43.12 20.56,-55.79 18.97,-107.58 -9.98,-324.88 23.97,-347.53 -112.75,-362.41l18.72 27.97c-45.5,32.32 -138.49,9.73 -159.62,-37.31l-93.92 18.44z"/>
  <path fill="#8EA9B2" d="M699.42 1255.39c-31.58,24.1 1.05,21.45 95.58,59.29 44.75,17.91 91.92,38.41 135.2,53.46l26.69 -77.47c-15.59,-38.19 -1.97,46.41 -65.7,28.8 -4.65,-46.07 50.27,-98.13 92.79,-89.47 38.06,-56.74 -1.52,-79.28 129.35,-90.1 25.55,-2.11 53.73,-1.97 74.41,-14.43l-11.94 -8.75c-7.49,-3.89 -0.52,-2.72 -20.07,-9.11 -5.53,-1.81 -29.61,-6.04 -37.27,-7.53 -25.38,-4.93 -48.6,-10.66 -72.2,-16l15.14 -43.54c-35.36,-12.39 -77.4,-27.45 -110.94,-41.68 -38.17,-16.19 -64.39,-30.07 -103.87,-42.3 -9.35,61.48 -30.84,104.67 -32.18,178.1 -1.02,56.03 0.97,119.14 21.35,165.42 -40.89,-4.28 -108.73,-28.96 -136.33,-44.68z"/>
  <path fill="#538543" d="M76.33 1106.3c73.79,43.15 236.09,24.85 322.82,18.55l21.32 -9.86 0.98 -23.67 -16.97 8.85c-6.82,2.98 -17.77,7.87 -22.75,9.31 -13.57,3.95 -32.29,4.85 -46.59,4.75 -46.46,-0.33 -117.06,-18.53 -157.29,-40.06 -67.14,-35.94 -46.58,-125.01 -73.56,-224.85 -15.28,-56.51 -26.69,-119.6 -30.4,-179.69l94.49 171.41c33.79,44.31 75.75,96.74 126.94,134.09 36.07,26.32 76.32,40.9 122.82,69.02l-2.58 -35.22c-116.85,-45.75 -185.8,-94.52 -244.1,-208.53 32.26,-28.62 64.55,-59.01 78.98,-104.02 -29.88,-40.01 -45.69,-75.76 -76.16,-115.2 -23.13,-29.93 -73.58,-82.38 -84.5,-108.38 -10.01,2.81 -11.13,1.52 -21.6,7.03 -24.49,12.91 -9.85,3.56 -22.63,16.85 -5.53,0.62 -31.12,-21.38 -30.08,59.12 0.35,27.16 4.06,60.99 7.08,88.29 20.95,189.49 53.73,112.98 59.07,300.76 1.19,41.72 -19.4,140.19 -5.29,161.43z"/>
  <g clip-path="url(#id1)">
   <g id="_2364921449824">
    <polygon id="1" fill="#578749" points="174.56,777.17 29.16,495.65 68.19,479.85 93.61,480.38 248.72,696.4 "/>
   </g>
  </g>
  <path fill="none" d="M76.33 1106.3c73.79,43.15 236.09,24.85 322.82,18.55l21.32 -9.86 0.98 -23.67 -16.97 8.85c-6.82,2.98 -17.77,7.87 -22.75,9.31 -13.57,3.95 -32.29,4.85 -46.59,4.75 -46.46,-0.33 -117.06,-18.53 -157.29,-40.06 -67.14,-35.94 -46.58,-125.01 -73.56,-224.85 -15.28,-56.51 -26.69,-119.6 -30.4,-179.69l94.49 171.41c33.79,44.31 75.75,96.74 126.94,134.09 36.07,26.32 76.32,40.9 122.82,69.02l-2.58 -35.22c-116.85,-45.75 -185.8,-94.52 -244.1,-208.53 32.26,-28.62 64.55,-59.01 78.98,-104.02 -29.88,-40.01 -45.69,-75.76 -76.16,-115.2 -23.13,-29.93 -73.58,-82.38 -84.5,-108.38 -10.01,2.81 -11.13,1.52 -21.6,7.03 -24.49,12.91 -9.85,3.56 -22.63,16.85 -5.53,0.62 -31.12,-21.38 -30.08,59.12 0.35,27.16 4.06,60.99 7.08,88.29 20.95,189.49 53.73,112.98 59.07,300.76 1.19,41.72 -19.4,140.19 -5.29,161.43z"/>
  <path fill="#F4B27C" d="M171.47 800.41c58.3,114 127.24,162.78 244.1,208.53l2.58 35.22 3.31 47.17 -0.98 23.67 5.26 -3.63 -4.91 -93.85c50.35,14.37 183.37,80.46 219.75,104.11l31.93 5.23 31.88 0.47c8.1,-36.12 26.71,-53.24 2.98,-77.23 -33.84,-6.32 -18.01,-0.7 -29.87,-17.06 -116.04,-7.23 -51.73,12.08 -141.83,-45.72 -24.52,-15.73 -230.06,-139.41 -230.74,-140.36 -37.52,-52.35 -18.98,-101.75 -69.91,-118.13 -5.03,18.42 -46.57,56.57 -63.53,71.6z"/>
  <path fill="#629D55" d="M421.36 1093.7l-3.36 -51.44c-46.5,-28.12 -88.34,-42.54 -124.42,-68.86 -51.19,-37.35 -82.14,-90.69 -115.93,-135.01l-105.5 -170.49c3.71,60.09 15.13,123.18 30.4,179.69 26.99,99.84 8.16,191.18 75.3,227.12 40.23,21.54 110.83,39.74 157.29,40.07 14.3,0.1 33.02,-0.81 46.59,-4.75 4.98,-1.45 15.93,-6.33 22.75,-9.31l16.88 -7.02z"/>
  <path fill="#F4AE7B" d="M180.28 251.87c20.94,17.18 40.12,66.11 54.25,91.1 20.29,-31.85 26,-68.88 137.72,-36.29 48.95,14.28 6.52,30.48 40.71,12.24 -0.33,-34.46 0.42,-56.58 -2.18,-90.29 -3.11,-40.18 0.71,-51.92 9,-81.41 -13.42,-10.51 -5.11,-0.98 -17.15,-19.26 -1.17,-1.78 -11.1,-22.95 -13.25,-27.23 -55.64,9.08 -96.17,6.14 -144.26,-4.09 -17.22,18.53 -2.17,18.32 -48.95,66.42 -33.85,34.8 -18,33.91 -15.9,88.8z"/>
  <path fill="#8E6143" d="M86.74 2186.35l-5.18 46.55 18.6 -13.63c18.4,8.53 7.99,-85.97 7.35,-122.14 -0.86,-48.57 3.09,-96.25 3.54,-144.75l14.2 -406.08c1.24,-51.36 -15.61,-81.77 -11.84,-125.12 8.44,-97.14 -2.22,-223.3 16.66,-273.63 87.37,-17.77 186.34,32.22 272.55,-26.17 -86.73,6.3 -249.03,24.6 -322.82,-18.55 5.06,70.96 2.3,197.45 0.7,272 -1.91,88.84 5.87,169.55 7.85,261.82 3.73,173.75 7.69,377.23 -1.62,549.7z"/>
  <path fill="#64442B" d="M1300.39 1753.14c-91.69,123.87 -111.69,63.55 -147.75,29.51l-23.52 -19.48 -13.35 30.95 51.46 55.27c18.14,22.75 27.13,35.13 32.28,74.66 9.51,72.97 4.23,146.72 3.87,219.94 -7.86,24.37 -32.21,116.06 -10.19,134.19 39.25,19.9 59.17,13.17 95.77,-5.17 -0.29,-40.24 -26.98,-77.8 -40.05,-123.96 3.12,-60.36 -3.2,-128.07 0.7,-194.98 6.31,-108.07 17.43,-95.48 55.68,-159.53l12.22 -42.24c-4.4,-2.73 2.28,-6.47 -17.12,0.84z"/>
  <path fill="#77939A" d="M815.52 942.31l-13.32 25.46 -89.76 226.73 -6.11 30.3 -6.91 30.59c27.61,15.73 95.44,40.4 136.33,44.68 -20.38,-46.28 -22.37,-109.39 -21.35,-165.42 1.33,-73.43 22.83,-116.62 32.18,-178.1 39.48,12.23 65.7,26.1 103.87,42.3 33.55,14.23 75.58,29.29 110.94,41.68l4 -10.61c-24.34,-22.88 -78.45,-38.92 -119.08,-56.47 -3.2,-1.38 -12.84,-5.22 -19.43,-8.45l-20.77 -12.12 -75.44 -30.44 -15.14 19.88z"/>
  <path fill="#2C130C" d="M96.69 2217.54l-18.6 13.63 -3.96 36.91c44.9,9.85 149.16,25.58 190.58,18.49 65.39,-11.19 128.03,19.51 183.1,3 -4.36,-42.36 -57.9,-45.49 -103.35,-65.6 -49.67,-8.17 -48.31,-8.18 -95.66,14.35 -17.03,10.25 -60.96,-12.38 -85.9,-21.02l-66.21 0.24z"/>
  <path fill="#D18B59" d="M181.97 454.38c21.13,47.04 117.59,73.1 163.09,40.78l-18.72 -27.97c-12.6,-5.48 -0.99,-2.39 -9.13,-17.27 -0.64,-16.05 9.02,-37.71 -2.89,-44.61l-115.09 -66.61 -17.26 115.69z"/>
  <path fill="#482517" d="M378.74 326.94c3.78,30.66 -1.21,32.27 -12.01,55.39 -49.84,17.22 -86.86,-1.72 -113.36,-28.43 22.48,-53.43 81.08,-36 125.37,-26.96zm-258.93 -130.96l6.7 23.29 22.35 1.79 9.68 21.38c23.39,10.89 21.12,24.99 11.39,45.82l3.96 19.12 -20.9 7.2 0.6 37.8c12.16,9.41 28.57,-2.89 28.61,-2.9 1.89,1.74 3.83,2.12 5.32,5.61 19.19,44.94 85.51,99.43 182.78,59.79 36.15,-19.67 43.48,-50.95 42.66,-95.96 -34.2,18.24 8.24,2.05 -40.71,-12.24 -111.72,-32.6 -117.43,4.44 -137.72,36.29 -14.14,-24.99 -33.31,-73.92 -54.25,-91.1 -2.1,-54.89 -17.95,-54 15.9,-88.8 46.78,-48.11 31.73,-47.9 48.95,-66.43 48.09,10.22 88.62,13.17 144.26,4.09 2.15,4.28 12.08,25.45 13.25,27.23 12.04,18.28 3.72,8.75 17.15,19.26 -1.31,-19.24 -1.58,-52.43 4.17,-73.93 9.65,-36.14 24.11,-19.99 24.33,-73.28l-37.77 9.21c-140.57,4.75 -337.42,-11.77 -290.69,186.76z"/>
  <path fill="#88A4AB" d="M949.73 947.95c2.87,38.24 1.82,26.44 43.19,36.49 18.91,4.59 22.54,3.35 42.17,11.15 14.67,-43.35 -15.84,-84.36 -32.62,-121.63 -7.47,-11.49 -0.56,-4.79 -15.53,-7.96l-37.22 81.94z"/>
  <path fill="#EAAB78" d="M253.38 353.9c26.49,26.71 63.51,45.65 113.35,28.43 10.8,-23.12 15.78,-24.73 12.01,-55.39 -44.29,-9.04 -102.88,-26.46 -125.36,26.96z"/>
  <path fill="#8EA9B2" d="M677.48 1033.03c11.86,16.37 -3.96,10.74 29.87,17.06l36.09 -96.21 58.77 13.88 13.32 -25.46c-40.07,-9.05 -35.61,-22.54 -83.97,-14.97 -28.88,31.54 -38.06,65.07 -54.07,105.69z"/>
  <path fill="#A7BCC4" d="M949.73 947.95c-16.15,24.14 3.66,4.1 -19.9,11.3l-23.73 -6.37 20.77 12.12c6.59,3.23 16.23,7.07 19.43,8.45 40.63,17.55 94.74,33.59 119.08,56.47 25.36,-52.43 5.64,-125.17 -62.91,-155.94 16.77,37.26 47.28,78.28 32.62,121.63 -19.63,-7.81 -23.26,-6.56 -42.17,-11.15 -41.37,-10.05 -40.32,1.75 -43.19,-36.49z"/>
  <path fill="#B2C7CE" d="M956.88 1290.67c6.6,-7.84 3.04,5.17 16.7,-23.9 10.68,-22.71 6.27,-15.61 10.39,-36.77 -42.52,-8.66 -97.44,43.39 -92.79,89.47 63.73,17.62 50.12,-66.98 65.7,-28.8z"/>
  <path fill="#8EA9B2" d="M706.33 1224.8l6.11 -30.3 -53.5 -24.52 13.56 -43.12 -31.93 -5.23c-10.05,31.91 -13.23,32.62 -8.46,70.54 24.02,17.76 40.29,22.14 74.22,32.64z"/>
  <path fill="#EAAB78" d="M152.99 314.59l20.9 -7.2c16.76,-23.58 1.16,-79.71 -25.03,-86.33l-22.35 -1.79c-30.17,26.23 -8.85,75.63 26.48,95.32z"/>
  <path fill="#CDD6AE" d="M1372.14 2167.6l24.03 -32.19c-10.85,-25.45 -8.53,-30.39 -51.46,-7.77 -0.57,0.3 -3.6,3.13 -4,1.86 -0.42,-1.29 -2.87,0.96 -4.21,1.64 7.33,10.36 4.98,9.96 15.91,21.23 10.92,11.26 7.25,6.63 19.74,15.23z"/>
  <path fill="#B5CE70" d="M678.42 2112.51c11.58,14.55 -3.44,4.32 37.97,2.46 0.5,-0.69 6.42,-3.75 10.13,-16.49 3.39,-11.65 3.1,-21.6 4.2,-33.09l-24.78 35.26 -14.46 -42.05 -13.05 53.91z"/>
  <path fill="#C5D98F" d="M-0 2169.81c17.13,37.31 6.08,12.18 19.29,24.49l20.89 0.42 1.88 -55.42 -22.96 38.49 -18.4 -40.24 -0.7 32.26z"/>
  <ellipse fill="#37160A" transform="matrix(0.96728 -0.25371 0.25371 0.96728 281.056 232.732)" rx="11.01" ry="17.43"/>
  <ellipse fill="#37160A" transform="matrix(0.999259 0.0384986 -0.0384986 0.999259 378.168 226.966)" rx="11.01" ry="17.43"/>
  <path fill="#37160A" d="M241.22 195.56c0,0 24.12,-11.07 30.17,-7.91 6.04,3.16 25.16,10.94 25.16,10.94 0,0 20.31,5.1 11.28,-5.8 -9.03,-10.91 -30.8,-18 -30.8,-18 0,0 -32.89,2.94 -34.35,11.85 -1.46,8.92 -1.46,8.92 -1.46,8.92z"/>
  <path fill="#37160A" d="M362.43 195.76l22.72 -7.38c0,0 4.17,5.07 6.2,7.38 2.03,2.31 9.67,-1.11 6.28,-4.97 -3.38,-3.86 2.42,-12.49 -7.48,-12.26 -9.9,0.23 -31.27,9.15 -31.27,9.15 0,0 -11.47,8.7 3.54,8.08z"/>
  <path fill="none" stroke="#37160A" stroke-width="3.47" stroke-miterlimit="22.9256" d="M287.91 328.52c0,0 46.69,30.66 71.53,5.18"/>
  <path fill="#482517" d="M128.1 248.08c3.32,-9.1 19.35,-8.13 27.03,-3.87 3.37,1.87 4.83,13.5 1.43,14.43l-17.02 4.7c0,0 28.88,-9.05 31.44,5.98l4.15 24.4c4,23.53 -3.19,-32.58 -7.01,-40.72 -3.54,-7.55 -50.24,-41.91 -40.02,-4.92z"/>
 </g>
</svg>
